<svg xmlns="http://www.w3.org/2000/svg" xmlns:xlink="http://www.w3.org/1999/xlink" width="40" zoomAndPan="magnify" viewBox="0 0 30 30.000001" height="40" preserveAspectRatio="xMidYMid meet" version="1.0"><defs><clipPath id="0c250e5435"><path d="M 0.484375 0 L 29.515625 0 L 29.515625 29.03125 L 0.484375 29.03125 Z M 0.484375 0 " clip-rule="nonzero"/></clipPath><clipPath id="909255ede6"><path d="M 15 0 C 6.984375 0 0.484375 6.5 0.484375 14.515625 C 0.484375 22.53125 6.984375 29.03125 15 29.03125 C 23.015625 29.03125 29.515625 22.53125 29.515625 14.515625 C 29.515625 6.5 23.015625 0 15 0 Z M 15 0 " clip-rule="nonzero"/></clipPath><clipPath id="fb4602f38d"><path d="M 0.484375 0 L 29.515625 0 L 29.515625 29.03125 L 0.484375 29.03125 Z M 0.484375 0 " clip-rule="nonzero"/></clipPath><clipPath id="0df2e0f257"><path d="M 15 0 C 6.984375 0 0.484375 6.5 0.484375 14.515625 C 0.484375 22.53125 6.984375 29.03125 15 29.03125 C 23.015625 29.03125 29.515625 22.53125 29.515625 14.515625 C 29.515625 6.5 23.015625 0 15 0 Z M 15 0 " clip-rule="nonzero"/></clipPath><clipPath id="7b5902e5b8"><rect x="0" width="30" y="0" height="30"/></clipPath><clipPath id="7defa173e4"><path d="M 8 10 L 24.691406 10 L 24.691406 27.582031 L 8 27.582031 Z M 8 10 " clip-rule="nonzero"/></clipPath><clipPath id="610db355d4"><path d="M 14 1.453125 L 16 1.453125 L 16 5 L 14 5 Z M 14 1.453125 " clip-rule="nonzero"/></clipPath><clipPath id="a24955d4c0"><path d="M 22 10 L 24.691406 10 L 24.691406 12 L 22 12 Z M 22 10 " clip-rule="nonzero"/></clipPath><clipPath id="557ec98e5a"><path d="M 5.09375 11 L 8 11 L 8 12 L 5.09375 12 Z M 5.09375 11 " clip-rule="nonzero"/></clipPath></defs><g clip-path="url(#0c250e5435)"><g clip-path="url(#909255ede6)"><g transform="matrix(1, 0, 0, 1, 0, 0.000000000000005692)"><g clip-path="url(#7b5902e5b8)"><g clip-path="url(#fb4602f38d)"><g clip-path="url(#0df2e0f257)"><path fill="#ffa100" d="M 0.484375 0 L 29.515625 0 L 29.515625 29.03125 L 0.484375 29.03125 Z M 0.484375 0 " fill-opacity="1" fill-rule="nonzero"/></g></g></g></g></g></g><g clip-path="url(#7defa173e4)"><path fill="#ffffff" d="M 20.398438 11.453125 C 20.253906 11.316406 20.246094 11.085938 20.386719 10.941406 C 21.015625 10.335938 22.203125 12.652344 22.359375 13.222656 C 22.640625 14.0625 22.757812 15.027344 22.648438 16.125 C 22.535156 17.371094 24.164062 18.539062 24.636719 19.484375 C 24.804688 20.128906 23.449219 20.382812 22.878906 20.496094 C 22.207031 24.511719 24.292969 25.585938 18.714844 25.324219 C 18.382812 25.324219 18.191406 25.390625 18.191406 25.769531 L 18.191406 27.199219 C 18.191406 27.402344 18.027344 27.566406 17.824219 27.566406 L 10.691406 27.566406 C 10.488281 27.566406 10.328125 27.402344 10.328125 27.199219 C 10.480469 26.109375 10.800781 21.921875 9.871094 20.871094 C 8.21875 18.890625 7.316406 14.753906 9.253906 12.335938 C 9.535156 11.957031 10.117188 12.367188 9.84375 12.757812 C 8.113281 14.914062 8.976562 18.671875 10.433594 20.417969 C 11.480469 21.664062 11.265625 25.285156 11.097656 26.84375 L 17.46875 26.84375 C 17.371094 24.308594 17.742188 24.605469 19.972656 24.644531 C 20.625 24.609375 22.066406 24.792969 22.015625 23.894531 C 21.894531 23.046875 22.050781 20.445312 22.367188 19.992188 C 22.476562 19.878906 22.730469 19.8125 23.046875 19.738281 C 23.414062 19.648438 23.957031 19.761719 23.929688 19.640625 C 23.136719 18.722656 21.84375 17.523438 21.929688 16.070312 C 22.105469 14.246094 21.644531 12.632812 20.398438 11.453125 Z M 20.398438 11.453125 " fill-opacity="1" fill-rule="evenodd"/></g><path fill="#ffffff" d="M 14.996094 17.75 L 12.738281 17.75 C 12.535156 17.75 12.375 17.589844 12.375 17.386719 C 12.375 16.441406 12.1875 16.328125 11.898438 16.15625 C 10.976562 15.609375 10.214844 14.8125 9.695312 13.867188 C 7.507812 9.964844 10.488281 4.914062 14.996094 4.976562 C 19.5 4.914062 22.484375 9.964844 20.289062 13.867188 C 19.773438 14.8125 19.011719 15.609375 18.089844 16.15625 C 17.804688 16.328125 17.609375 16.441406 17.609375 17.386719 C 17.609375 17.589844 17.449219 17.75 17.246094 17.75 Z M 13.09375 17.027344 L 16.898438 17.027344 C 16.972656 15.882812 17.320312 15.796875 17.878906 15.441406 C 22.257812 12.589844 20.257812 5.71875 15 5.703125 C 9.738281 5.722656 7.734375 12.589844 12.113281 15.441406 C 12.671875 15.796875 13.023438 15.882812 13.09375 17.027344 Z M 13.09375 17.027344 " fill-opacity="1" fill-rule="evenodd"/><path fill="#ffffff" d="M 13.058594 17.027344 L 16.761719 17.027344 C 17.179688 17.027344 17.554688 17.191406 17.828125 17.46875 C 18.78125 18.367188 18.082031 20.078125 16.761719 20.046875 C 16.761719 20.046875 13.058594 20.046875 13.058594 20.046875 C 11.070312 19.996094 11.0625 17.082031 13.058594 17.027344 Z M 16.761719 17.75 L 13.058594 17.75 C 12.027344 17.773438 12.027344 19.300781 13.058594 19.320312 C 13.058594 19.320312 16.761719 19.320312 16.761719 19.320312 C 17.789062 19.300781 17.792969 17.773438 16.761719 17.75 Z M 16.761719 17.75 " fill-opacity="1" fill-rule="evenodd"/><path fill="#ffffff" d="M 12.5625 19.320312 L 17.261719 19.320312 C 17.464844 19.320312 17.625 19.484375 17.625 19.6875 C 17.621094 20.179688 17.710938 20.925781 17.269531 21.261719 C 17.066406 21.449219 16.796875 21.566406 16.503906 21.566406 L 13.320312 21.566406 C 13.007812 21.566406 12.730469 21.441406 12.527344 21.238281 C 12.109375 20.894531 12.203125 20.160156 12.195312 19.683594 C 12.195312 19.484375 12.359375 19.320312 12.5625 19.320312 Z M 16.894531 20.046875 L 12.921875 20.046875 L 12.921875 20.445312 C 12.921875 20.664062 13.101562 20.839844 13.320312 20.839844 L 16.5 20.839844 C 16.71875 20.839844 16.894531 20.664062 16.894531 20.445312 Z M 16.894531 20.046875 " fill-opacity="1" fill-rule="evenodd"/><path fill="#ffffff" d="M 14.097656 13.234375 C 14.097656 12.761719 14.824219 12.757812 14.824219 13.234375 L 14.824219 17.390625 C 14.824219 17.863281 14.097656 17.867188 14.097656 17.390625 Z M 14.097656 13.234375 " fill-opacity="1" fill-rule="evenodd"/><path fill="#ffffff" d="M 13.550781 11.773438 C 14.253906 11.773438 14.824219 12.34375 14.824219 13.042969 L 14.824219 13.945312 C 14.824219 14.148438 14.660156 14.3125 14.457031 14.3125 L 13.550781 14.3125 C 11.882812 14.261719 11.882812 11.820312 13.550781 11.773438 Z M 13.550781 12.5 C 13.082031 12.484375 12.832031 13.109375 13.171875 13.425781 C 13.355469 13.652344 13.84375 13.570312 14.097656 13.582031 L 14.097656 13.039062 C 14.097656 12.742188 13.847656 12.5 13.550781 12.5 Z M 13.550781 12.5 " fill-opacity="1" fill-rule="evenodd"/><path fill="#ffffff" d="M 15 13.234375 C 15 12.761719 15.726562 12.757812 15.726562 13.234375 L 15.726562 17.390625 C 15.726562 17.863281 15 17.867188 15 17.390625 Z M 15 13.234375 " fill-opacity="1" fill-rule="evenodd"/><path fill="#ffffff" d="M 16.269531 12.5 C 15.96875 12.5 15.726562 12.742188 15.726562 13.042969 L 15.726562 13.585938 C 15.984375 13.570312 16.46875 13.65625 16.652344 13.429688 C 16.992188 13.109375 16.738281 12.484375 16.269531 12.5 Z M 16.269531 11.773438 C 17.941406 11.820312 17.941406 14.265625 16.269531 14.3125 C 16.269531 14.3125 15.367188 14.3125 15.367188 14.3125 C 15.164062 14.3125 15 14.148438 15 13.945312 L 15 13.042969 C 15 12.34375 15.570312 11.773438 16.269531 11.773438 Z M 16.269531 11.773438 " fill-opacity="1" fill-rule="evenodd"/><g clip-path="url(#610db355d4)"><path fill="#ffffff" d="M 14.628906 1.945312 C 14.628906 1.472656 15.355469 1.464844 15.355469 1.945312 L 15.355469 3.695312 C 15.355469 4.167969 14.628906 4.171875 14.628906 3.695312 Z M 14.628906 1.945312 " fill-opacity="1" fill-rule="evenodd"/></g><path fill="#ffffff" d="M 19.394531 3.027344 C 19.632812 2.621094 20.257812 2.980469 20.023438 3.390625 L 19.144531 4.910156 C 18.90625 5.316406 18.28125 4.960938 18.515625 4.542969 Z M 19.394531 3.027344 " fill-opacity="1" fill-rule="evenodd"/><path fill="#ffffff" d="M 22.96875 6.34375 C 23.382812 6.109375 23.742188 6.730469 23.335938 6.972656 L 21.816406 7.851562 C 21.40625 8.085938 21.046875 7.464844 21.453125 7.222656 Z M 22.96875 6.34375 " fill-opacity="1" fill-rule="evenodd"/><g clip-path="url(#a24955d4c0)"><path fill="#ffffff" d="M 24.417969 11 C 24.890625 11 24.894531 11.726562 24.417969 11.726562 L 22.664062 11.726562 C 22.460938 11.726562 22.300781 11.566406 22.300781 11.363281 C 22.300781 11.160156 22.460938 10.996094 22.664062 10.996094 L 24.417969 10.996094 Z M 24.417969 11 " fill-opacity="1" fill-rule="evenodd"/></g><g clip-path="url(#557ec98e5a)"><path fill="#ffffff" d="M 5.570312 11.726562 C 5.101562 11.726562 5.09375 11 5.570312 11 L 7.324219 11 C 7.796875 11 7.800781 11.726562 7.324219 11.726562 Z M 5.570312 11.726562 " fill-opacity="1" fill-rule="evenodd"/></g><path fill="#ffffff" d="M 6.652344 6.96875 C 6.246094 6.730469 6.609375 6.105469 7.019531 6.335938 L 8.539062 7.214844 C 8.945312 7.457031 8.585938 8.078125 8.171875 7.847656 Z M 6.652344 6.96875 " fill-opacity="1" fill-rule="evenodd"/><path fill="#ffffff" d="M 9.972656 3.386719 C 9.738281 2.976562 10.363281 2.613281 10.601562 3.027344 L 11.480469 4.542969 C 11.714844 4.957031 11.089844 5.316406 10.851562 4.90625 Z M 9.972656 3.386719 " fill-opacity="1" fill-rule="evenodd"/><path fill="#c6d8fb" d="M 12.507812 17.984375 C 12.011719 18.441406 12.378906 19.347656 13.058594 19.328125 C 13.058594 19.328125 16.761719 19.328125 16.761719 19.328125 C 17.785156 19.304688 17.800781 17.796875 16.777344 17.757812 C 16.773438 17.75 15.375 17.761719 15.367188 17.757812 C 15.152344 17.757812 14.679688 17.757812 14.460938 17.757812 L 13.066406 17.757812 C 12.847656 17.75 12.648438 17.84375 12.507812 17.984375 Z M 12.507812 17.984375 " fill-opacity="1" fill-rule="evenodd"/><path fill="#c6d8fb" d="M 16.761719 20.046875 L 12.921875 20.046875 L 12.921875 20.445312 C 12.921875 20.664062 13.101562 20.839844 13.320312 20.839844 L 16.5 20.839844 C 16.71875 20.839844 16.894531 20.664062 16.894531 20.445312 L 16.894531 20.046875 Z M 16.761719 20.046875 " fill-opacity="1" fill-rule="evenodd"/></svg>