<svg xmlns="http://www.w3.org/2000/svg" xmlns:xlink="http://www.w3.org/1999/xlink" width="40" zoomAndPan="magnify" viewBox="0 0 30 30.000001" height="40" preserveAspectRatio="xMidYMid meet" version="1.0"><defs><clipPath id="18d430e97f"><path d="M 0.484375 0 L 29.515625 0 L 29.515625 29.03125 L 0.484375 29.03125 Z M 0.484375 0 " clip-rule="nonzero"/></clipPath><clipPath id="f86a391744"><path d="M 15 0 C 6.984375 0 0.484375 6.5 0.484375 14.515625 C 0.484375 22.53125 6.984375 29.03125 15 29.03125 C 23.015625 29.03125 29.515625 22.53125 29.515625 14.515625 C 29.515625 6.5 23.015625 0 15 0 Z M 15 0 " clip-rule="nonzero"/></clipPath><clipPath id="df5a223c79"><path d="M 0.484375 0 L 29.515625 0 L 29.515625 29.03125 L 0.484375 29.03125 Z M 0.484375 0 " clip-rule="nonzero"/></clipPath><clipPath id="6f43be1ab9"><path d="M 15 0 C 6.984375 0 0.484375 6.5 0.484375 14.515625 C 0.484375 22.53125 6.984375 29.03125 15 29.03125 C 23.015625 29.03125 29.515625 22.53125 29.515625 14.515625 C 29.515625 6.5 23.015625 0 15 0 Z M 15 0 " clip-rule="nonzero"/></clipPath><clipPath id="fd5c3a85a5"><rect x="0" width="30" y="0" height="30"/></clipPath><clipPath id="51452556f9"><path d="M 4 25 L 26 25 L 26 26.128906 L 4 26.128906 Z M 4 25 " clip-rule="nonzero"/></clipPath><clipPath id="c53859c875"><path d="M 13 2.902344 L 17 2.902344 L 17 7 L 13 7 Z M 13 2.902344 " clip-rule="nonzero"/></clipPath><clipPath id="787ed99703"><path d="M 3.386719 6 L 15 6 L 15 20 L 3.386719 20 Z M 3.386719 6 " clip-rule="nonzero"/></clipPath><clipPath id="648a46c124"><path d="M 15 6 L 26.613281 6 L 26.613281 20 L 15 20 Z M 15 6 " clip-rule="nonzero"/></clipPath></defs><g clip-path="url(#18d430e97f)"><g clip-path="url(#f86a391744)"><g transform="matrix(1, 0, 0, 1, 0, 0.000000000000005692)"><g clip-path="url(#fd5c3a85a5)"><g clip-path="url(#df5a223c79)"><g clip-path="url(#6f43be1ab9)"><path fill="#8c80f7" d="M 0.484375 0 L 29.515625 0 L 29.515625 29.03125 L 0.484375 29.03125 Z M 0.484375 0 " fill-opacity="1" fill-rule="nonzero"/></g></g></g></g></g></g><g clip-path="url(#51452556f9)"><path fill="#ffffff" d="M 24.113281 25.097656 L 5.886719 25.097656 C 5.527344 25.097656 5.207031 25.339844 5.105469 25.683594 L 4.976562 26.128906 L 25.023438 26.128906 L 24.894531 25.683594 C 24.792969 25.339844 24.472656 25.097656 24.113281 25.097656 Z M 24.113281 25.097656 " fill-opacity="1" fill-rule="nonzero"/></g><path fill="#ffffff" d="M 14.386719 6.445312 L 15.609375 6.445312 L 15.609375 7.085938 L 14.386719 7.085938 Z M 14.386719 6.445312 " fill-opacity="1" fill-rule="nonzero"/><g clip-path="url(#c53859c875)"><path fill="#ffffff" d="M 15.714844 6.066406 C 16.019531 5.730469 16.199219 5.214844 16.199219 4.664062 C 16.199219 3.691406 15.660156 2.902344 15 2.902344 C 14.335938 2.902344 13.796875 3.691406 13.796875 4.664062 C 13.796875 5.214844 13.976562 5.730469 14.28125 6.066406 Z M 15.714844 6.066406 " fill-opacity="1" fill-rule="nonzero"/></g><path fill="#ffffff" d="M 14.386719 7.46875 L 15.609375 7.46875 L 15.609375 22.195312 L 14.386719 22.195312 Z M 14.386719 7.46875 " fill-opacity="1" fill-rule="nonzero"/><path fill="#ffffff" d="M 9.949219 23.691406 C 9.59375 23.691406 9.277344 23.929688 9.179688 24.269531 L 9.050781 24.71875 L 20.949219 24.71875 L 20.820312 24.269531 C 20.71875 23.929688 20.402344 23.691406 20.050781 23.691406 Z M 9.949219 23.691406 " fill-opacity="1" fill-rule="nonzero"/><path fill="#ffffff" d="M 14.199219 22.574219 L 12.058594 22.574219 L 12.058594 23.3125 L 17.941406 23.3125 L 17.941406 22.574219 Z M 14.199219 22.574219 " fill-opacity="1" fill-rule="nonzero"/><g clip-path="url(#787ed99703)"><path fill="#ffffff" d="M 11.515625 17.136719 L 10.589844 17.136719 L 8.566406 9.222656 C 8.734375 9.25 8.898438 9.265625 9.0625 9.265625 C 9.835938 9.265625 10.433594 9.035156 11.007812 8.8125 C 11.46875 8.636719 11.898438 8.46875 12.359375 8.453125 C 13.039062 8.429688 13.652344 8.730469 14.007812 8.949219 L 14.007812 7.40625 C 13.726562 7.3125 12.875 7.058594 12.117188 7.1875 C 11.71875 7.257812 11.335938 7.464844 10.929688 7.679688 C 10.363281 7.984375 9.777344 8.300781 9.0625 8.300781 C 8.242188 8.300781 7.785156 8.011719 7.5625 7.804688 C 7.484375 7.890625 7.394531 7.96875 7.292969 8.027344 C 7.199219 8.082031 7.085938 8.046875 7.03125 7.957031 C 6.980469 7.867188 7.011719 7.75 7.101562 7.699219 C 7.324219 7.570312 7.457031 7.335938 7.457031 7.085938 C 7.457031 6.695312 7.140625 6.378906 6.753906 6.378906 C 6.363281 6.378906 6.046875 6.695312 6.046875 7.085938 C 6.046875 7.457031 6.265625 7.851562 6.609375 8.199219 L 4.324219 17.136719 L 3.398438 17.136719 C 3.546875 18.523438 5.308594 19.621094 7.457031 19.621094 C 9.601562 19.621094 11.367188 18.523438 11.515625 17.136719 Z M 10.195312 17.136719 L 7.648438 17.136719 L 7.648438 8.921875 C 7.808594 9 7.972656 9.0625 8.144531 9.117188 Z M 7.265625 8.71875 L 7.265625 17.136719 L 4.71875 17.136719 L 6.929688 8.484375 C 7.035156 8.566406 7.148438 8.644531 7.265625 8.71875 Z M 7.265625 8.71875 " fill-opacity="1" fill-rule="nonzero"/></g><g clip-path="url(#648a46c124)"><path fill="#ffffff" d="M 25.675781 17.136719 L 23.390625 8.199219 C 23.734375 7.851562 23.953125 7.457031 23.953125 7.085938 C 23.953125 6.695312 23.636719 6.378906 23.246094 6.378906 C 22.855469 6.378906 22.539062 6.695312 22.539062 7.085938 C 22.539062 7.335938 22.675781 7.570312 22.894531 7.699219 C 22.988281 7.75 23.019531 7.867188 22.964844 7.957031 C 22.914062 8.046875 22.796875 8.082031 22.707031 8.027344 C 22.601562 7.96875 22.511719 7.890625 22.433594 7.804688 C 22.210938 8.011719 21.753906 8.300781 20.933594 8.300781 C 20.222656 8.300781 19.636719 7.984375 19.070312 7.683594 C 18.664062 7.464844 18.277344 7.257812 17.882812 7.191406 C 17.125 7.058594 16.273438 7.3125 15.992188 7.410156 L 15.992188 8.949219 C 16.34375 8.734375 16.960938 8.433594 17.640625 8.453125 C 18.097656 8.46875 18.53125 8.636719 18.988281 8.8125 C 19.566406 9.035156 20.160156 9.265625 20.933594 9.265625 C 21.097656 9.265625 21.265625 9.25 21.433594 9.222656 L 19.410156 17.136719 L 18.480469 17.136719 C 18.632812 18.523438 20.394531 19.621094 22.542969 19.621094 C 24.6875 19.621094 26.453125 18.523438 26.601562 17.136719 Z M 23.066406 8.484375 L 25.277344 17.136719 L 22.734375 17.136719 L 22.734375 8.71875 C 22.851562 8.644531 22.960938 8.566406 23.066406 8.484375 Z M 22.351562 8.921875 L 22.351562 17.136719 L 19.804688 17.136719 L 21.855469 9.117188 C 22.023438 9.0625 22.191406 9 22.351562 8.921875 Z M 22.351562 8.921875 " fill-opacity="1" fill-rule="nonzero"/></g></svg>