<svg xmlns="http://www.w3.org/2000/svg" xmlns:xlink="http://www.w3.org/1999/xlink" width="40" zoomAndPan="magnify" viewBox="0 0 30 30.000001" height="40" preserveAspectRatio="xMidYMid meet" version="1.0"><defs><clipPath id="ad9fdd025a"><path d="M 0.484375 0 L 29.515625 0 L 29.515625 29.03125 L 0.484375 29.03125 Z M 0.484375 0 " clip-rule="nonzero"/></clipPath><clipPath id="c044c83082"><path d="M 15 0 C 6.984375 0 0.484375 6.5 0.484375 14.515625 C 0.484375 22.53125 6.984375 29.03125 15 29.03125 C 23.015625 29.03125 29.515625 22.53125 29.515625 14.515625 C 29.515625 6.5 23.015625 0 15 0 Z M 15 0 " clip-rule="nonzero"/></clipPath><clipPath id="397a61e59e"><path d="M 0.484375 0 L 29.515625 0 L 29.515625 29.03125 L 0.484375 29.03125 Z M 0.484375 0 " clip-rule="nonzero"/></clipPath><clipPath id="4c049dbc67"><path d="M 15 0 C 6.984375 0 0.484375 6.5 0.484375 14.515625 C 0.484375 22.53125 6.984375 29.03125 15 29.03125 C 23.015625 29.03125 29.515625 22.53125 29.515625 14.515625 C 29.515625 6.5 23.015625 0 15 0 Z M 15 0 " clip-rule="nonzero"/></clipPath><clipPath id="289fff2cc4"><rect x="0" width="30" y="0" height="30"/></clipPath><clipPath id="55cec22e70"><path d="M 4.386719 13 L 9 13 L 9 23 L 4.386719 23 Z M 4.386719 13 " clip-rule="nonzero"/></clipPath><clipPath id="180a0fd39c"><path d="M 8 15 L 25 15 L 25 23.777344 L 8 23.777344 Z M 8 15 " clip-rule="nonzero"/></clipPath><clipPath id="5254ed9023"><path d="M 4.386719 13 L 9 13 L 9 23.777344 L 4.386719 23.777344 Z M 4.386719 13 " clip-rule="nonzero"/></clipPath><clipPath id="1db6563aed"><path d="M 13 4.90625 L 20 4.90625 L 20 8 L 13 8 Z M 13 4.90625 " clip-rule="nonzero"/></clipPath><clipPath id="42dfd64441"><path d="M 8 17 L 25.433594 17 L 25.433594 23.777344 L 8 23.777344 Z M 8 17 " clip-rule="nonzero"/></clipPath></defs><g clip-path="url(#ad9fdd025a)"><g clip-path="url(#c044c83082)"><g transform="matrix(1, 0, 0, 1, 0, 0.000000000000005692)"><g clip-path="url(#289fff2cc4)"><g clip-path="url(#397a61e59e)"><g clip-path="url(#4c049dbc67)"><path fill="#a42c64" d="M 0.484375 0 L 29.515625 0 L 29.515625 29.03125 L 0.484375 29.03125 Z M 0.484375 0 " fill-opacity="1" fill-rule="nonzero"/></g></g></g></g></g></g><path fill="#ffffff" d="M 19.0625 5.34375 L 18.25 7.230469 L 15.277344 7.230469 L 14.171875 5.34375 L 14.914062 5.464844 C 16.042969 5.65625 17.195312 5.65625 18.320312 5.464844 Z M 19.0625 5.34375 " fill-opacity="1" fill-rule="nonzero"/><path fill="#df6d2b" d="M 18.25 7.230469 C 18.699219 7.230469 19.0625 7.597656 19.0625 8.046875 C 19.0625 8.496094 18.699219 8.863281 18.25 8.863281 L 15.277344 8.863281 C 14.824219 8.863281 14.460938 8.496094 14.460938 8.046875 C 14.460938 7.597656 14.824219 7.230469 15.277344 7.230469 Z M 18.25 7.230469 " fill-opacity="1" fill-rule="nonzero"/><path fill="#ffffff" d="M 21.894531 16.960938 C 21.894531 17.472656 21.75 17.949219 21.5 18.355469 L 17.453125 19.613281 L 17.292969 19.613281 C 17.628906 19.398438 17.839844 18.988281 17.839844 18.632812 C 17.863281 17.933594 17.300781 17.371094 16.617188 17.371094 L 12.132812 17.371094 L 11.769531 17.007812 C 11.730469 16.257812 11.765625 15.441406 11.972656 14.714844 C 12.835938 11.671875 14.367188 9.640625 15.148438 8.863281 C 15.78125 8.863281 17.859375 8.863281 18.496094 8.863281 C 20.636719 11 21.898438 13.878906 21.894531 16.960938 Z M 21.894531 16.960938 " fill-opacity="1" fill-rule="nonzero"/><g clip-path="url(#55cec22e70)"><path fill="#ffffff" d="M 8.464844 22.671875 L 4.792969 22.671875 L 4.792969 13.703125 L 8.464844 13.703125 C 8.464844 14.125 8.464844 22.140625 8.464844 22.671875 Z M 8.464844 22.671875 " fill-opacity="1" fill-rule="nonzero"/></g><g clip-path="url(#180a0fd39c)"><path fill="#898b95" d="M 16.617188 17.371094 C 17.300781 17.371094 17.863281 17.9375 17.839844 18.632812 C 17.839844 18.898438 17.71875 19.207031 17.511719 19.425781 C 17.378906 19.570312 17.21875 19.679688 17.03125 19.746094 C 25.601562 17.074219 19.574219 18.953125 23.265625 17.804688 C 24.050781 17.648438 24.773438 18.25 24.773438 19.039062 C 24.773438 19.582031 24.425781 20.0625 23.910156 20.234375 L 14.988281 23.691406 L 9.6875 21.855469 L 8.464844 21.855469 C 8.464844 20.886719 8.464844 15.90625 8.464844 15.332031 L 10.09375 15.332031 C 10.335938 15.574219 11.910156 17.148438 12.132812 17.371094 Z M 16.617188 17.371094 " fill-opacity="1" fill-rule="nonzero"/></g><g clip-path="url(#5254ed9023)"><path fill="#000000" d="M 8.464844 23.078125 L 4.792969 23.078125 C 4.566406 23.078125 4.386719 22.898438 4.386719 22.671875 L 4.386719 13.703125 C 4.386719 13.476562 4.566406 13.292969 4.792969 13.292969 L 8.464844 13.292969 C 8.6875 13.292969 8.871094 13.476562 8.871094 13.703125 L 8.871094 22.671875 C 8.871094 22.898438 8.6875 23.078125 8.464844 23.078125 Z M 5.203125 22.265625 L 8.054688 22.265625 L 8.054688 14.109375 L 5.203125 14.109375 Z M 5.203125 22.265625 " fill-opacity="1" fill-rule="nonzero"/></g><path fill="#000000" d="M 6.832031 21.039062 C 6.605469 21.039062 6.425781 20.859375 6.425781 20.632812 L 6.425781 20.226562 C 6.425781 20 6.605469 19.816406 6.832031 19.816406 C 7.058594 19.816406 7.238281 20 7.238281 20.226562 L 7.238281 20.632812 C 7.238281 20.859375 7.058594 21.039062 6.832031 21.039062 Z M 6.832031 21.039062 " fill-opacity="1" fill-rule="nonzero"/><path fill="#000000" d="M 18.25 9.269531 C 18.023438 9.269531 17.839844 9.085938 17.839844 8.863281 C 17.839844 8.636719 18.023438 8.453125 18.25 8.453125 C 18.472656 8.453125 18.65625 8.273438 18.65625 8.046875 C 18.65625 7.824219 18.472656 7.640625 18.25 7.640625 L 15.277344 7.640625 C 15.050781 7.640625 14.867188 7.820312 14.867188 8.046875 C 14.867188 8.273438 15.050781 8.453125 15.277344 8.453125 C 15.5 8.453125 15.683594 8.636719 15.683594 8.863281 C 15.683594 9.085938 15.5 9.269531 15.277344 9.269531 C 14.601562 9.269531 14.050781 8.722656 14.050781 8.046875 C 14.050781 7.371094 14.597656 6.824219 15.277344 6.824219 L 18.25 6.824219 C 18.921875 6.824219 19.472656 7.371094 19.472656 8.046875 C 19.472656 8.375 19.34375 8.679688 19.113281 8.910156 C 18.882812 9.144531 18.574219 9.269531 18.25 9.269531 Z M 18.25 9.269531 " fill-opacity="1" fill-rule="nonzero"/><path fill="#000000" d="M 21.285156 18.699219 C 21.09375 18.582031 21.035156 18.332031 21.152344 18.140625 C 21.371094 17.785156 21.488281 17.378906 21.488281 16.960938 C 21.488281 14.117188 20.382812 11.382812 18.324219 9.269531 L 15.320312 9.269531 C 14.386719 10.253906 13.097656 12.246094 12.363281 14.828125 C 12.195312 15.421875 12.132812 16.148438 12.175781 16.988281 C 12.1875 17.210938 12.015625 17.402344 11.792969 17.414062 C 11.566406 17.425781 11.375 17.253906 11.363281 17.03125 C 11.3125 16.105469 11.386719 15.289062 11.578125 14.605469 C 12.386719 11.765625 13.851562 9.582031 14.859375 8.574219 C 14.9375 8.496094 15.039062 8.453125 15.148438 8.453125 L 18.496094 8.453125 C 18.601562 8.453125 18.707031 8.496094 18.78125 8.574219 C 21.0625 10.84375 22.304688 13.839844 22.304688 16.960938 C 22.300781 17.527344 22.144531 18.085938 21.847656 18.566406 C 21.730469 18.757812 21.476562 18.820312 21.285156 18.699219 Z M 21.285156 18.699219 " fill-opacity="1" fill-rule="nonzero"/><g clip-path="url(#1db6563aed)"><path fill="#000000" d="M 18.085938 7.605469 C 17.878906 7.515625 17.785156 7.277344 17.875 7.070312 L 18.394531 5.867188 L 18.390625 5.867188 C 17.253906 6.058594 16.101562 6.066406 14.960938 5.886719 L 15.628906 7.027344 C 15.742188 7.21875 15.675781 7.46875 15.480469 7.582031 C 15.285156 7.699219 15.039062 7.632812 14.921875 7.4375 L 13.820312 5.550781 C 13.738281 5.414062 13.746094 5.242188 13.835938 5.113281 C 13.925781 4.980469 14.082031 4.914062 14.238281 4.941406 L 14.980469 5.066406 C 16.066406 5.246094 17.167969 5.246094 18.253906 5.066406 L 18.996094 4.941406 C 19.144531 4.917969 19.292969 4.972656 19.386719 5.09375 C 19.476562 5.210938 19.496094 5.367188 19.4375 5.503906 L 18.621094 7.394531 C 18.535156 7.601562 18.292969 7.695312 18.085938 7.605469 Z M 18.085938 7.605469 " fill-opacity="1" fill-rule="nonzero"/></g><path fill="#000000" d="M 16.824219 15.128906 L 16.011719 15.128906 C 15.785156 15.128906 15.601562 14.945312 15.601562 14.722656 C 15.601562 14.496094 15.785156 14.3125 16.011719 14.3125 L 16.824219 14.3125 C 16.933594 14.3125 17.035156 14.269531 17.113281 14.195312 C 17.273438 14.035156 17.273438 13.777344 17.113281 13.617188 C 17.035156 13.539062 16.933594 13.496094 16.824219 13.496094 C 16.148438 13.496094 15.601562 12.949219 15.601562 12.273438 C 15.601562 11.601562 16.152344 11.050781 16.824219 11.050781 L 17.640625 11.050781 C 17.867188 11.050781 18.046875 11.234375 18.046875 11.460938 C 18.046875 11.683594 17.867188 11.867188 17.640625 11.867188 L 16.824219 11.867188 C 16.601562 11.867188 16.417969 12.050781 16.417969 12.273438 C 16.417969 12.496094 16.597656 12.683594 16.824219 12.683594 C 17.152344 12.683594 17.460938 12.808594 17.691406 13.039062 C 18.167969 13.519531 18.167969 14.292969 17.691406 14.769531 C 17.460938 15 17.152344 15.128906 16.824219 15.128906 Z M 16.824219 15.128906 " fill-opacity="1" fill-rule="nonzero"/><path fill="#000000" d="M 16.824219 11.867188 C 16.601562 11.867188 16.417969 11.683594 16.417969 11.460938 L 16.417969 10.644531 C 16.417969 10.417969 16.601562 10.234375 16.824219 10.234375 C 17.050781 10.234375 17.234375 10.417969 17.234375 10.644531 L 17.234375 11.460938 C 17.234375 11.683594 17.050781 11.867188 16.824219 11.867188 Z M 16.824219 11.867188 " fill-opacity="1" fill-rule="nonzero"/><path fill="#000000" d="M 16.824219 15.945312 C 16.601562 15.945312 16.417969 15.761719 16.417969 15.535156 L 16.417969 14.722656 C 16.417969 14.496094 16.601562 14.3125 16.824219 14.3125 C 17.050781 14.3125 17.234375 14.496094 17.234375 14.722656 L 17.234375 15.535156 C 17.234375 15.761719 17.050781 15.945312 16.824219 15.945312 Z M 16.824219 15.945312 " fill-opacity="1" fill-rule="nonzero"/><g clip-path="url(#42dfd64441)"><path fill="#000000" d="M 14.851562 24.078125 L 9.617188 22.265625 L 8.464844 22.265625 C 8.238281 22.265625 8.054688 22.082031 8.054688 21.855469 C 8.054688 21.632812 8.238281 21.449219 8.464844 21.449219 L 9.6875 21.449219 C 9.730469 21.449219 9.777344 21.457031 9.820312 21.472656 L 14.980469 23.257812 C 24.195312 19.6875 23.765625 19.855469 23.78125 19.847656 C 24.128906 19.734375 24.363281 19.40625 24.363281 19.039062 C 24.363281 18.515625 23.894531 18.105469 23.363281 18.199219 L 17.152344 20.136719 C 16.9375 20.203125 16.710938 20.082031 16.644531 19.867188 C 16.574219 19.652344 16.695312 19.421875 16.910156 19.355469 C 23.449219 17.320312 23.144531 17.410156 23.183594 17.402344 C 24.226562 17.199219 25.179688 17.992188 25.179688 19.039062 C 25.179688 19.753906 24.726562 20.390625 24.050781 20.621094 L 15.132812 24.070312 C 15.042969 24.105469 14.945312 24.109375 14.851562 24.078125 Z M 14.851562 24.078125 " fill-opacity="1" fill-rule="nonzero"/></g><path fill="#000000" d="M 16.617188 20.226562 L 12.132812 20.226562 C 11.90625 20.226562 11.726562 20.042969 11.726562 19.816406 C 11.726562 19.59375 11.90625 19.410156 12.132812 19.410156 L 16.617188 19.410156 C 16.714844 19.410156 16.804688 19.390625 16.894531 19.363281 C 17.191406 19.253906 17.425781 18.964844 17.433594 18.621094 C 17.445312 18.152344 17.070312 17.777344 16.617188 17.777344 L 12.132812 17.777344 C 12.023438 17.777344 11.921875 17.734375 11.84375 17.660156 L 9.925781 15.742188 L 8.464844 15.742188 C 8.238281 15.742188 8.054688 15.558594 8.054688 15.332031 C 8.054688 15.109375 8.238281 14.925781 8.464844 14.925781 L 10.09375 14.925781 C 10.203125 14.925781 10.304688 14.96875 10.382812 15.042969 L 12.300781 16.964844 L 16.617188 16.964844 C 17.519531 16.964844 18.25 17.691406 18.25 18.59375 C 18.25 19.492188 17.519531 20.226562 16.617188 20.226562 Z M 16.617188 20.226562 " fill-opacity="1" fill-rule="nonzero"/><path fill="#000000" d="M 6.832031 21.855469 C 6.605469 21.855469 6.425781 21.671875 6.425781 21.449219 L 6.425781 20.632812 C 6.425781 20.40625 6.605469 20.226562 6.832031 20.226562 C 7.058594 20.226562 7.238281 20.40625 7.238281 20.632812 L 7.238281 21.449219 C 7.238281 21.671875 7.058594 21.855469 6.832031 21.855469 Z M 6.832031 21.855469 " fill-opacity="1" fill-rule="nonzero"/></svg>